<?xml version="1.0" standalone="no"?>
<!DOCTYPE svg PUBLIC "-//W3C//DTD SVG 20010904//EN"
 "http://www.w3.org/TR/2001/REC-SVG-20010904/DTD/svg10.dtd">
<svg version="1.0" xmlns="http://www.w3.org/2000/svg"
 width="700.000000pt" height="400.000000pt" viewBox="0 0 700.000000 400.000000"
 preserveAspectRatio="xMidYMid meet">

<g transform="translate(0.000000,400.000000) scale(0.100000,-0.100000)"
fill="#000000" stroke="none">
<path d="M997 3118 c-88 -108 -245 -308 -280 -358 -50 -71 -61 -98 -46 -116
27 -33 37 -23 128 133 23 39 88 127 144 194 l102 122 2 -119 c4 -210 23 -567
33 -634 15 -97 37 -148 70 -165 64 -33 85 -10 40 42 -41 47 -59 90 -76 183
-19 104 -27 365 -17 546 10 192 8 208 -34 212 -26 3 -36 -3 -66 -40z"/>
<path d="M3516 3130 c-95 -37 -159 -124 -154 -208 2 -39 6 -47 23 -47 15 0 21
11 30 56 18 86 41 120 110 154 57 28 66 30 180 30 110 -1 127 -3 203 -32 162
-62 285 -167 352 -300 30 -59 34 -80 38 -161 4 -91 4 -95 -32 -166 -63 -128
-195 -231 -348 -272 -64 -17 -198 -17 -253 0 -37 11 -40 15 -40 46 0 31 -3 35
-25 35 -49 0 -60 -81 -14 -111 37 -25 157 -37 245 -25 152 20 270 76 368 172
190 187 188 424 -5 629 -95 100 -214 171 -345 205 -85 22 -270 19 -333 -5z"/>
<path d="M1670 2994 c-8 -2 -32 -5 -52 -9 -44 -7 -98 -49 -98 -76 0 -31 22
-32 81 -4 97 45 209 28 250 -39 48 -79 7 -204 -147 -444 -41 -64 -79 -132 -85
-152 -21 -72 26 -122 127 -135 30 -3 167 -1 304 6 195 10 250 15 250 26 0 18
11 17 -295 17 -307 1 -327 5 -333 64 -3 27 12 59 76 165 140 233 177 323 170
413 -3 32 -13 66 -24 82 -35 48 -161 96 -224 86z"/>
<path d="M3560 2945 c-11 -13 -8 -50 14 -203 39 -268 75 -453 92 -479 8 -13
21 -23 29 -23 22 0 19 43 -9 131 -29 89 -51 231 -66 423 -12 157 -26 192 -60
151z"/>
<path d="M4552 2613 c-63 -31 -154 -178 -168 -270 -10 -69 2 -111 39 -133 66
-41 172 -12 261 70 l46 42 37 -32 c51 -45 92 -60 166 -60 78 0 130 28 135 74
3 27 2 28 -30 23 -18 -3 -53 -12 -78 -22 -54 -20 -109 -9 -152 33 -33 31 -34
36 -8 113 12 33 18 69 15 80 -9 27 -50 52 -74 44 -13 -4 -34 4 -62 25 -47 34
-79 37 -127 13z m73 -83 c10 -11 25 -22 35 -25 24 -8 44 -120 26 -147 -41 -58
-159 -113 -213 -99 -23 6 -29 13 -31 45 -5 62 25 133 82 193 57 58 74 63 101
33z"/>
<path d="M5064 2604 c-16 -23 -16 -29 0 -87 38 -138 139 -266 213 -269 91 -3
136 20 194 100 l34 47 6 -60 c4 -33 10 -186 14 -340 7 -250 6 -286 -9 -340
-20 -69 -58 -115 -95 -115 -35 0 -121 42 -148 71 -33 37 -45 78 -41 149 3 55
0 65 -15 68 -12 3 -22 -7 -32 -32 -18 -42 -18 -59 -4 -127 28 -129 208 -229
305 -170 78 47 92 146 76 538 -12 310 -7 432 21 510 15 40 15 44 -3 65 -33 40
-59 10 -75 -84 -3 -20 -24 -64 -46 -98 -122 -181 -270 -136 -314 95 -21 108
-46 133 -81 79z"/>
<path d="M5813 2570 c-78 -16 -123 -49 -123 -92 0 -39 26 -61 111 -93 263 -98
322 -125 309 -139 -11 -10 -184 -36 -245 -36 -44 0 -66 5 -75 15 -19 23 -53
14 -68 -18 -29 -59 19 -68 271 -47 144 12 182 26 192 70 10 47 -19 71 -157
124 -135 52 -268 115 -268 127 0 17 89 33 190 34 92 0 105 2 108 18 8 39 -128
60 -245 37z"/>
<path d="M2745 1606 c-22 -22 -32 -49 -69 -186 l-15 -55 2 45 c2 42 0 45 -23
45 l-25 0 0 -195 c0 -107 -4 -207 -9 -223 -10 -33 6 -57 40 -57 27 0 41 34 29
71 -13 38 -6 158 15 258 23 116 41 170 77 230 l26 45 28 -32 c37 -41 46 -78
65 -257 8 -82 20 -167 25 -187 10 -39 34 -54 69 -43 23 7 30 32 55 195 10 63
21 124 25 135 10 24 7 31 55 -140 46 -160 82 -239 113 -243 32 -5 29 21 -12
98 -51 98 -66 146 -89 286 l-22 129 -32 3 c-27 3 -33 -1 -37 -20 -2 -13 -14
-75 -25 -138 -26 -146 -50 -229 -61 -210 -4 8 -15 80 -24 160 -23 199 -33 245
-63 280 -32 39 -83 41 -118 6z"/>
<path d="M1499 1461 c-45 -35 -71 -112 -77 -229 -4 -88 -8 -104 -24 -113 -26
-14 -20 -53 9 -57 14 -2 25 -12 28 -25 3 -12 12 -52 20 -90 25 -109 49 -143
81 -116 28 23 14 80 -32 129 -14 16 -26 44 -30 72 l-6 45 122 29 c114 27 151
44 118 56 -7 3 -65 -3 -128 -12 -63 -10 -117 -15 -120 -13 -8 8 -1 134 11 176
11 43 58 97 83 97 9 0 16 -6 16 -13 0 -8 8 -21 18 -30 52 -48 87 22 39 78 -31
37 -93 44 -128 16z"/>
<path d="M1031 1455 c-18 -8 -63 -45 -98 -81 -117 -119 -163 -260 -113 -342
67 -109 324 -90 443 33 88 91 64 212 -57 293 -42 27 -45 31 -24 34 36 5 30 40
-12 60 -42 22 -93 22 -139 3z m39 -50 c-17 -21 -8 -30 75 -70 137 -66 170
-153 92 -241 -88 -101 -289 -133 -374 -60 -25 22 -28 31 -28 83 1 45 7 70 30
111 38 71 90 129 144 164 50 31 82 38 61 13z"/>
<path d="M4832 1459 c-35 -13 -45 -53 -38 -151 l6 -87 -25 11 c-52 24 -178
-27 -247 -99 -54 -57 -59 -120 -12 -164 51 -48 185 -25 280 47 24 19 46 34 48
34 2 0 16 -20 30 -45 26 -43 68 -75 101 -75 35 0 24 30 -34 88 -34 33 -61 67
-61 75 0 8 10 36 22 63 25 59 31 209 10 260 -16 37 -48 55 -80 43z m48 -110
c13 -54 7 -138 -13 -173 -10 -19 -12 -18 -18 19 -15 78 -8 205 11 205 5 0 13
-23 20 -51z m-106 -196 c57 -39 59 -44 28 -77 -57 -61 -186 -96 -243 -66 -35
20 -24 63 28 109 74 65 127 75 187 34z"/>
<path d="M4196 1434 c-29 -28 -12 -144 36 -257 l21 -48 -33 -34 c-68 -70 -245
-117 -310 -83 -57 30 -29 96 57 135 49 23 62 24 130 18 74 -7 75 -7 71 16 -5
35 -44 51 -105 44 -102 -10 -205 -76 -233 -149 -16 -44 13 -97 65 -115 77 -26
238 17 332 89 l52 39 33 -45 c32 -45 79 -79 92 -67 15 15 3 38 -48 92 -41 42
-53 60 -46 71 5 8 14 38 20 67 9 42 8 64 -5 115 -27 106 -85 157 -129 112z
m78 -98 c17 -37 22 -156 6 -156 -12 0 -36 82 -46 156 -6 53 -5 57 9 46 8 -7
22 -28 31 -46z"/>
<path d="M5142 1388 c-7 -7 -12 -15 -12 -19 0 -10 58 10 66 22 8 14 -40 11
-54 -3z"/>
<path d="M3471 1258 c-42 -12 -145 -113 -155 -151 -9 -39 12 -78 54 -100 55
-29 208 -20 277 16 62 32 83 59 83 108 0 29 -7 43 -31 63 -17 14 -36 26 -43
26 -7 0 -34 11 -60 25 -50 27 -71 29 -125 13z m49 -72 c0 -19 22 -26 80 -26
43 0 80 -17 80 -36 0 -40 -81 -85 -165 -91 -82 -6 -139 13 -143 49 -5 39 73
118 116 118 21 0 32 -5 32 -14z"/>
<path d="M5544 1121 c-32 -21 -70 -50 -83 -65 -32 -34 -41 -33 -41 7 0 36 -24
77 -45 77 -26 0 -38 -40 -31 -103 7 -69 26 -97 67 -97 23 0 37 11 70 55 47 62
120 115 158 115 37 0 65 -23 110 -88 55 -81 99 -122 132 -122 15 0 31 5 34 10
6 10 -46 73 -166 201 -43 46 -49 49 -96 49 -41 0 -60 -7 -109 -39z"/>
<path d="M5107 1122 c-23 -25 -21 -74 3 -122 26 -50 55 -54 64 -9 10 53 7 104
-10 127 -18 27 -36 28 -57 4z"/>
<path d="M6037 1106 c-100 -38 -137 -67 -137 -107 0 -63 62 -68 195 -16 50 19
93 32 98 28 14 -14 39 -235 40 -363 2 -118 0 -129 -19 -149 -32 -32 -97 -35
-169 -9 -96 34 -105 35 -105 13 0 -65 203 -115 286 -71 61 33 66 71 45 368
-12 175 -16 200 -39 248 -49 98 -73 105 -195 58z m93 -45 c0 -12 -71 -39 -122
-47 -43 -6 -43 -6 -19 11 41 31 141 56 141 36z"/>
</g>
</svg>
