<?xml version="1.0" standalone="no"?>
<!DOCTYPE svg PUBLIC "-//W3C//DTD SVG 20010904//EN"
 "http://www.w3.org/TR/2001/REC-SVG-20010904/DTD/svg10.dtd">
<svg version="1.0" xmlns="http://www.w3.org/2000/svg"
 width="1191.000000pt" height="670.000000pt" viewBox="0 0 1191.000000 670.000000"
 preserveAspectRatio="xMidYMid meet">

<g transform="translate(0.000000,670.000000) scale(0.100000,-0.100000)"
fill="#000000" stroke="none">
<path d="M841 4503 c-34 -7 -94 -72 -192 -208 -48 -66 -119 -158 -159 -205
-171 -202 -391 -496 -433 -577 -23 -43 -22 -96 1 -116 47 -42 101 -3 162 115
69 133 144 258 207 343 72 97 288 356 371 445 l61 65 1 -340 c1 -642 23 -1051
71 -1334 21 -124 46 -191 87 -234 71 -75 192 -91 192 -26 0 9 -27 45 -61 80
-67 70 -96 121 -127 221 -27 88 -59 298 -72 478 -12 181 -12 592 0 765 6 72
13 201 16 287 8 175 1 209 -47 233 -28 15 -35 16 -78 8z"/>
<path d="M6240 4484 c-242 -47 -363 -118 -453 -266 -47 -78 -67 -144 -67 -222
0 -78 16 -110 56 -114 43 -4 53 13 64 109 29 235 119 335 360 400 113 31 350
33 480 6 423 -90 784 -352 950 -692 73 -148 93 -238 88 -394 -3 -109 -8 -138
-35 -213 -40 -115 -110 -225 -207 -326 -101 -106 -186 -169 -306 -231 -211
-108 -445 -155 -654 -132 -93 11 -227 48 -248 69 -6 6 0 20 16 35 31 31 33 56
6 89 -25 33 -49 39 -88 22 -89 -37 -80 -214 13 -258 104 -50 398 -66 582 -33
270 49 499 161 682 333 182 171 284 356 313 568 24 177 -33 405 -146 587 -190
305 -523 535 -921 636 -85 21 -127 26 -280 28 -99 2 -191 1 -205 -1z"/>
<path d="M2040 4129 c-84 -22 -144 -59 -177 -108 -28 -41 -29 -72 -5 -94 29
-26 63 -20 133 22 90 54 160 75 249 75 143 0 274 -66 321 -161 20 -40 24 -62
23 -138 0 -76 -6 -106 -36 -196 -62 -182 -145 -334 -356 -651 -154 -234 -179
-311 -129 -408 28 -56 102 -103 190 -120 110 -21 319 -23 557 -5 124 9 324 19
444 21 141 3 224 8 233 15 20 17 16 37 -12 55 -22 15 -53 16 -263 11 -130 -3
-326 -11 -436 -18 -287 -18 -496 6 -588 67 -35 22 -38 28 -38 72 0 64 37 137
199 397 370 590 433 874 235 1054 -130 119 -345 162 -544 110z"/>
<path d="M6147 4052 c-19 -21 -23 -101 -7 -167 5 -23 32 -200 60 -395 60 -426
124 -778 151 -840 26 -58 56 -90 86 -90 49 0 46 85 -6 217 -78 198 -133 557
-161 1042 -12 202 -24 244 -76 249 -20 2 -36 -3 -47 -16z"/>
<path d="M8253 3354 c-132 -65 -303 -320 -358 -535 -8 -31 -15 -90 -15 -130 0
-86 21 -141 68 -181 139 -117 388 -50 606 164 l68 68 20 -25 c95 -121 265
-193 428 -182 102 8 174 31 220 73 51 46 68 95 46 129 -24 36 -64 32 -152 -14
-119 -63 -228 -65 -345 -5 -50 25 -116 94 -125 130 -3 13 7 45 25 83 32 62 61
164 61 214 0 43 -29 96 -61 112 -35 19 -109 19 -134 1 -17 -12 -23 -9 -62 34
-83 92 -188 115 -290 64z m137 -169 c28 -45 71 -75 107 -75 28 0 28 -1 25 -52
-3 -46 9 -118 33 -195 6 -18 -4 -34 -50 -82 -69 -73 -157 -131 -248 -166 -114
-43 -235 -30 -251 27 -22 82 15 236 85 356 45 76 164 195 209 209 56 18 67 15
90 -22z"/>
<path d="M9334 3356 c-62 -52 -36 -213 67 -418 86 -171 186 -290 287 -340 35
-17 68 -24 134 -26 77 -4 94 -1 143 22 82 37 141 91 226 205 l74 100 2 -62 c2
-34 10 -206 20 -382 11 -188 18 -466 18 -675 0 -311 -2 -365 -19 -435 -24
-103 -60 -177 -108 -221 -36 -32 -43 -34 -106 -34 -79 1 -149 26 -248 91 -76
49 -118 105 -139 185 -17 67 -20 192 -4 247 13 48 4 75 -27 83 -55 14 -104
-80 -104 -198 0 -76 26 -190 57 -251 80 -159 345 -314 500 -291 132 19 218
118 259 300 31 134 30 485 -4 1079 -11 207 -8 600 6 699 7 49 23 109 36 135
42 84 49 115 32 154 -24 60 -84 75 -131 34 -24 -20 -27 -31 -32 -107 -9 -133
-80 -273 -213 -414 -77 -81 -141 -116 -216 -116 -83 0 -137 24 -197 90 -100
107 -141 204 -158 365 -6 55 -19 119 -29 142 -29 66 -78 81 -126 39z"/>
<path d="M11030 3273 c-297 -32 -418 -112 -381 -251 18 -66 70 -102 229 -157
337 -118 544 -201 631 -255 l46 -29 -26 -10 c-116 -44 -494 -91 -612 -77 -44
6 -55 11 -69 36 -13 23 -24 30 -48 30 -47 0 -70 -17 -92 -66 -41 -94 1 -139
125 -131 425 26 603 39 662 48 155 24 203 72 197 192 -3 38 -67 99 -122 116
-58 17 -439 167 -555 219 -49 22 -125 60 -169 85 l-78 45 28 15 c48 24 134 45
231 57 76 9 115 8 218 -5 133 -17 154 -14 175 26 14 25 -7 62 -48 83 -58 30
-211 43 -342 29z"/>
</g>
</svg>
