<?xml version="1.0" standalone="no"?>
<!DOCTYPE svg PUBLIC "-//W3C//DTD SVG 20010904//EN"
 "http://www.w3.org/TR/2001/REC-SVG-20010904/DTD/svg10.dtd">
<svg version="1.0" xmlns="http://www.w3.org/2000/svg"
 width="1438.000000pt" height="808.000000pt" viewBox="0 0 1438.000000 808.000000"
 preserveAspectRatio="xMidYMid meet">

<g transform="translate(0.000000,808.000000) scale(0.100000,-0.100000)"
fill="#000000" stroke="none">
<path d="M5303 4979 c-102 -51 -138 -134 -234 -551 -23 -103 -44 -186 -46
-185 -1 2 2 39 8 83 25 203 25 200 -10 222 -37 22 -72 19 -98 -10 -16 -18 -18
-40 -18 -187 0 -91 7 -272 14 -401 l13 -235 -26 -144 c-15 -80 -24 -157 -21
-173 15 -67 115 -102 163 -58 39 37 40 51 7 234 -16 87 -16 114 -6 229 23 250
101 614 171 795 32 84 130 254 149 260 21 7 91 -50 117 -93 53 -91 82 -209
113 -465 32 -258 40 -334 51 -494 14 -208 41 -260 138 -273 44 -6 84 11 121
51 20 21 25 41 32 118 19 209 114 736 138 760 3 4 31 -90 60 -210 29 -119 91
-332 137 -472 79 -239 88 -260 134 -317 27 -34 59 -64 70 -68 31 -10 80 30 80
65 0 16 -4 30 -9 32 -14 5 -165 303 -204 403 -62 156 -101 334 -137 628 -11
87 -24 166 -30 177 -39 73 -169 64 -184 -13 -2 -12 -9 -65 -15 -117 -33 -278
-177 -873 -201 -829 -17 31 -60 349 -100 744 -15 151 -46 299 -77 368 -26 59
-84 120 -129 137 -44 17 -126 12 -171 -11z"/>
<path d="M2111 4596 c-79 -28 -165 -134 -206 -252 -42 -120 -59 -250 -59 -455
l0 -187 -34 -12 c-49 -17 -72 -45 -72 -83 0 -50 36 -80 91 -76 l44 4 8 -50 c4
-28 21 -104 36 -170 16 -66 34 -152 41 -192 13 -79 57 -163 102 -196 61 -45
122 16 115 116 -5 83 -77 223 -129 249 -35 19 -37 22 -62 127 -25 103 -32 151
-21 151 3 0 43 11 90 25 47 13 183 45 303 71 222 47 262 61 262 92 0 53 -59
54 -337 6 -115 -19 -238 -39 -275 -43 l-67 -7 -7 55 c-9 76 3 249 26 354 37
168 97 258 205 306 53 23 65 21 65 -14 0 -64 63 -145 113 -145 49 0 85 34 93
87 23 154 -169 296 -325 239z"/>
<path d="M897 4566 c-102 -37 -235 -140 -357 -278 -189 -212 -294 -437 -293
-628 1 -185 89 -307 263 -361 365 -114 892 80 1034 381 29 60 31 73 31 171 0
104 -1 107 -42 191 -35 70 -57 100 -124 162 -89 84 -238 178 -350 222 -77 30
-110 25 -130 -20 -27 -58 12 -96 136 -131 159 -46 322 -169 380 -288 40 -82
45 -180 15 -260 -55 -147 -265 -294 -492 -346 -237 -55 -450 -26 -559 76 -57
53 -79 110 -79 203 0 184 102 390 288 582 165 170 294 237 400 209 26 -6 75
-25 109 -42 84 -40 117 -45 148 -25 82 54 3 159 -139 185 -80 15 -193 13 -239
-3z"/>
<path d="M10590 4547 c-59 -39 -71 -71 -77 -214 -5 -115 5 -271 23 -361 l7
-33 -43 22 c-58 30 -122 34 -221 15 -205 -41 -465 -227 -537 -385 -48 -105
-26 -219 57 -294 73 -65 152 -85 283 -68 173 22 355 106 494 227 l73 64 19
-33 c11 -17 36 -62 56 -99 80 -145 199 -218 290 -177 57 26 40 72 -53 139 -81
59 -149 131 -202 214 l-37 58 44 92 c74 154 88 221 88 436 0 175 -1 189 -27
266 -22 65 -35 89 -67 118 -34 31 -47 36 -89 36 -33 0 -58 -7 -81 -23z m121
-172 c61 -137 64 -347 9 -519 -19 -59 -35 -95 -41 -89 -30 30 -59 398 -40 508
16 90 32 145 43 145 5 0 18 -20 29 -45z m-318 -557 c12 -6 44 -31 72 -55 40
-37 55 -44 81 -41 29 3 33 1 43 -33 6 -20 11 -43 11 -51 0 -25 -132 -143 -205
-183 -134 -75 -323 -113 -425 -85 -53 14 -120 76 -120 111 0 63 23 104 94 174
78 76 159 129 240 157 58 20 176 24 209 6z"/>
<path d="M9011 4522 c-52 -26 -74 -63 -79 -130 -8 -115 69 -409 156 -596 l46
-99 -75 -71 c-154 -147 -370 -236 -606 -253 -114 -7 -207 14 -259 60 -29 25
-34 36 -34 73 0 60 28 111 91 168 129 116 360 175 487 124 53 -21 93 -26 127
-17 63 18 73 73 22 124 -43 43 -120 60 -237 52 -116 -9 -185 -29 -320 -94 -97
-47 -126 -66 -185 -127 -90 -90 -120 -148 -120 -236 0 -196 200 -289 496 -230
122 24 281 75 363 117 79 40 186 116 244 173 29 29 54 51 56 49 2 -2 37 -49
79 -104 112 -150 166 -195 233 -195 16 0 28 8 35 24 10 21 6 33 -25 85 -21 34
-41 61 -45 61 -15 0 -140 121 -176 170 l-36 50 30 62 c87 177 78 402 -25 613
-70 144 -152 194 -243 147z m170 -278 c58 -118 70 -301 25 -406 l-14 -33 -24
55 c-52 114 -87 273 -94 425 l-5 110 41 -45 c22 -25 54 -72 71 -106z"/>
<path d="M11445 4393 c-70 -37 -102 -90 -47 -80 42 7 134 45 150 61 8 8 11 19
8 25 -10 16 -76 13 -111 -6z"/>
<path d="M7183 4055 c-108 -24 -188 -71 -293 -172 -145 -139 -197 -243 -171
-340 16 -64 51 -107 114 -143 85 -48 176 -64 346 -57 170 6 257 26 384 86 193
92 270 234 203 377 -37 79 -101 121 -231 149 -59 13 -84 24 -98 42 -46 58
-149 82 -254 58z m53 -181 c-17 -67 28 -87 171 -78 108 8 170 -5 213 -46 98
-91 -75 -251 -311 -289 -143 -24 -323 -3 -406 45 -75 44 -81 83 -24 170 39 61
148 171 190 194 39 20 72 28 125 29 47 1 48 0 42 -25z"/>
<path d="M12608 3776 c-118 -42 -245 -128 -384 -259 l-92 -87 -6 31 c-3 18 -6
60 -6 96 0 162 -136 248 -186 116 -15 -39 -16 -61 -7 -192 12 -158 20 -186 72
-235 24 -23 42 -30 84 -34 78 -6 106 12 178 120 76 112 125 166 208 229 75 57
149 94 208 104 95 15 196 -68 318 -266 117 -190 230 -289 328 -289 56 0 77 14
77 54 0 34 -29 67 -171 187 -35 30 -76 81 -116 145 -124 200 -235 288 -375
300 -51 4 -76 0 -130 -20z"/>
<path d="M11354 3720 c-61 -24 -92 -113 -75 -213 13 -77 70 -199 104 -221 35
-23 70 -28 90 -13 16 11 19 33 23 179 5 153 4 170 -15 207 -33 63 -73 83 -127
61z"/>
<path d="M13855 3701 c-127 -40 -288 -105 -369 -149 -88 -48 -127 -95 -133
-159 -8 -95 60 -163 164 -163 62 0 280 68 449 140 126 54 150 59 158 33 21
-68 82 -557 96 -775 33 -490 5 -575 -199 -609 -121 -20 -295 18 -423 92 -72
42 -98 47 -122 23 -32 -32 -12 -100 43 -147 85 -71 391 -138 535 -116 136 21
210 68 258 166 28 58 32 76 36 174 3 60 -1 157 -7 217 -17 158 -39 468 -52
712 -12 253 -23 302 -79 358 -32 31 -40 47 -40 75 0 67 -86 139 -180 151 -34
4 -68 -2 -135 -23z m104 -157 c17 -4 31 -9 31 -13 0 -3 -43 -25 -96 -49 -97
-44 -214 -75 -318 -86 -53 -6 -57 -5 -46 9 17 21 124 80 180 100 115 41 183
52 249 39z"/>
</g>
</svg>
